<?xml version="1.0" encoding="UTF-8"?>
<svg width="83px" height="79px" viewBox="0 0 83 79" version="1.1" xmlns="http://www.w3.org/2000/svg" xmlns:xlink="http://www.w3.org/1999/xlink">
    <!-- Generator: Sketch 55.2 (78181) - https://sketchapp.com -->
    <title>Assets Icon</title>
    <desc>Created with Sketch.</desc>
    <g id="Page-1" stroke="none" stroke-width="1" fill="none" fill-rule="evenodd" stroke-linecap="round" stroke-linejoin="round">
        <g id="1_Factorie-Website_Main" transform="translate(-264.000000, -2823.000000)" stroke="#FFFFFF" stroke-width="3">
            <g id="features" transform="translate(0.000000, 2258.000000)">
                <g id="Assets" transform="translate(234.000000, 567.000000)">
                    <g id="Assets-Icon" transform="translate(32.000000, 0.000000)">
                        <path d="M0,75.4322173 L78.7934422,75.4322173" id="Path-30"></path>
                        <path d="M10.5422601,75.4802248 L11.6397166,50.6724524" id="Path-31" transform="translate(11.090988, 63.076339) rotate(10.000000) translate(-11.090988, -63.076339) "></path>
                        <path d="M26.3422601,75.4802248 L27.4397166,50.6724524" id="Path-31" transform="translate(26.890988, 63.076339) scale(-1, 1) rotate(10.000000) translate(-26.890988, -63.076339) "></path>
                        <circle id="Oval" cx="19.0092668" cy="43.7520551" r="7.9"></circle>
                        <polyline id="Path-32" points="20.860313 30.4847639 56.88 4.94252336 26.8909883 39.9779557"></polyline>
                        <circle id="Oval" cx="60.04" cy="3.16" r="3.16"></circle>
                        <g id="Group-11" transform="translate(50.609267, 35.852055)">
                            <polyline id="Path-33" points="9.33872532 -1.13686838e-13 0 6.10514947 0 10.3729779"></polyline>
                            <polyline id="Path-33" transform="translate(14.149363, 5.186489) scale(-1, 1) translate(-14.149363, -5.186489) " points="18.8187253 -1.13464793e-13 9.48 6.10514947 9.48 10.3729779"></polyline>
                        </g>
                        <path d="M60.04,7.13943329 L60.04,35.9074149" id="Path-3"></path>
                        <polyline id="Path-4" points="50.5962696 75.1964962 50.5962696 60.5718882 70.1361947 60.5718882 70.1361947 74.0712966"></polyline>
                    </g>
                </g>
            </g>
        </g>
    </g>
</svg>