<?xml version="1.0" encoding="UTF-8"?>
<svg width="18px" height="18px" viewBox="0 0 18 18" version="1.1" xmlns="http://www.w3.org/2000/svg" xmlns:xlink="http://www.w3.org/1999/xlink">
    <!-- Generator: Sketch 55.2 (78181) - https://sketchapp.com -->
    <title>Call Icon</title>
    <desc>Created with Sketch.</desc>
    <g id="Page-1" stroke="none" stroke-width="1" fill="none" fill-rule="evenodd">
        <g id="1_Factorie-Website_Main" transform="translate(-98.000000, -5160.000000)">
            <g id="footer" transform="translate(0.000000, 4918.000000)">
                <g id="Call-Icon" transform="translate(96.000000, 240.000000)">
                    <rect id="Rectangle" x="0" y="0" width="22" height="22"></rect>
                    <path d="M3.20752183,9.15828683 C2.70167834,7.48452109 3.12550016,5.61101223 4.4252707,4.31198093 L5.3846781,3.35311921 C5.85577161,2.88229363 6.6195653,2.88229356 7.09065889,3.35311921 C7.15833893,3.42076076 7.21772348,3.49621233 7.26755974,3.57788196 L8.82230369,6.12573606 C9.11221134,6.60082559 9.03911177,7.21249887 8.64540287,7.60598384 L7.44369076,8.80701247 C8.17148681,9.76241947 9.34161875,11.0458992 10.1771348,11.88094 C10.9973729,12.7007116 12.3596071,13.9522892 13.2891087,14.6614984 L14.5012745,13.4500221 C14.8930179,13.0585014 15.5012323,12.9839932 15.9759916,13.2693643 L18.4152349,14.7355586 C18.9861599,15.0787334 19.1706294,15.8194945 18.8272594,16.3900947 C18.7766441,16.4742054 18.7159413,16.5518239 18.6464987,16.621227 L17.6940102,17.5731738 C15.9728095,19.2933955 13.2456263,19.4807741 11.3050648,18.0121591 C10.0488594,17.0614475 8.76082147,15.9265318 7.44095114,14.6074122 C6.40682273,13.5738719 5.48335994,12.5573847 4.67056277,11.5579506" id="Path" stroke="#293557" stroke-width="1.5" stroke-linecap="round" stroke-linejoin="round" transform="translate(11.000000, 11.000000) rotate(-1.000000) translate(-11.000000, -11.000000) "></path>
                </g>
            </g>
        </g>
    </g>
</svg>