<?xml version="1.0" encoding="UTF-8"?>
<svg width="27px" height="27px" viewBox="0 0 27 27" version="1.1" xmlns="http://www.w3.org/2000/svg" xmlns:xlink="http://www.w3.org/1999/xlink">
    <!-- Generator: Sketch 55.2 (78181) - https://sketchapp.com -->
    <title>linkedin</title>
    <desc>Created with Sketch.</desc>
    <g id="Page-1" stroke="none" stroke-width="1" fill="none" fill-rule="evenodd">
        <g id="4_Factorie-Website_Mobile" transform="translate(-98.000000, -5290.000000)">
            <g id="linkedin" transform="translate(99.000000, 5291.000000)">
                <path d="M12.4999571,0 C19.4039009,0 25,5.59687147 25,12.5000429 C25,19.4032143 19.4039009,25 12.4999571,25 C5.59601331,25 0,19.4031285 0,12.5000429 C0,5.59695729 5.59609912,0 12.4999571,0 Z" id="Path" stroke="#0077B7" fill="#0E76A8"></path>
                <path d="M6.46454012,16.9353952 L8.87953866,16.9353952 L8.87953866,8.87296951 L6.46454012,8.87296951 L6.46454012,16.9353952 Z M15.8729849,8.59369794 C14.7009469,8.59369794 13.6522487,9.02240507 12.9083141,9.96868251 L12.9083141,8.84645245 L10.4844613,8.84645245 L10.4844613,16.9354839 L12.9083141,16.9354839 L12.9083141,12.5611457 C12.9083141,11.636685 13.7538956,10.7348391 14.8130418,10.7348391 C15.872188,10.7348391 16.1333886,11.636685 16.1333886,12.5385308 L16.1333886,16.9346857 L18.5483871,16.9346857 L18.5483871,12.3584986 C18.5482986,9.17982236 17.0458197,8.59369794 15.8729849,8.59369794 Z M7.66075021,8.06725905 C8.32818409,8.06725905 8.86988752,7.52467936 8.86988752,6.85616583 C8.86988752,6.1876523 8.32818409,5.64516129 7.66075021,5.64516129 C6.99331633,5.64516129 6.4516129,6.18774099 6.4516129,6.85625452 C6.4516129,7.52476804 6.99331633,8.06725905 7.66075021,8.06725905 Z" id="Shape" fill="#FFFFFF" fill-rule="nonzero"></path>
            </g>
        </g>
    </g>
</svg>