<?xml version="1.0" encoding="UTF-8"?>
<svg width="180px" height="218px" viewBox="0 0 180 218" version="1.1" xmlns="http://www.w3.org/2000/svg" xmlns:xlink="http://www.w3.org/1999/xlink">
    <!-- Generator: Sketch 55.2 (78181) - https://sketchapp.com -->
    <title>Group</title>
    <desc>Created with Sketch.</desc>
    <defs>
        <rect id="path-1" x="0" y="0" width="180" height="228"></rect>
    </defs>
    <g id="Page-1" stroke="none" stroke-width="1" fill="none" fill-rule="evenodd">
        <g id="1_Factorie-Website_Main" transform="translate(-1260.000000, -1413.000000)">
            <g id="How-it-works" transform="translate(0.000000, 1358.000000)">
                <g id="Group" transform="translate(1260.000000, 50.000000)">
                    <mask id="mask-2" fill="white">
                        <use xlink:href="#path-1"></use>
                    </mask>
                    <g id="Rectangle"></g>
                    <polygon id="Polygon" stroke-opacity="0.2" stroke="#293557" stroke-width="5" stroke-linecap="round" stroke-linejoin="round" mask="url(#mask-2)" transform="translate(159.000000, 171.000000) scale(-1, 1) rotate(90.000000) translate(-159.000000, -171.000000) " points="159 114 208.363448 142.5 208.363448 199.5 159 228 109.636552 199.5 109.636552 142.5"></polygon>
                    <polygon id="Polygon" stroke-opacity="0.2" stroke="#293557" stroke-width="5" stroke-linecap="round" stroke-linejoin="round" mask="url(#mask-2)" transform="translate(60.000000, 114.000000) scale(-1, 1) rotate(90.000000) translate(-60.000000, -114.000000) " points="60 57 109.363448 85.5 109.363448 142.5 60 171 10.636552 142.5 10.636552 85.5"></polygon>
                    <polygon id="Polygon" stroke-opacity="0.2" stroke="#293557" stroke-width="5" stroke-linecap="round" stroke-linejoin="round" mask="url(#mask-2)" transform="translate(159.000000, 57.000000) scale(-1, 1) rotate(90.000000) translate(-159.000000, -57.000000) " points="159 0 208.363448 28.5 208.363448 85.5 159 114 109.636552 85.5 109.636552 28.5"></polygon>
                </g>
            </g>
        </g>
    </g>
</svg>