<?xml version="1.0" encoding="UTF-8"?>
<svg width="49px" height="67px" viewBox="0 0 49 67" version="1.1" xmlns="http://www.w3.org/2000/svg" xmlns:xlink="http://www.w3.org/1999/xlink">
    <!-- Generator: Sketch 55.2 (78181) - https://sketchapp.com -->
    <title>Icon/Track Maintenance</title>
    <desc>Created with Sketch.</desc>
    <g id="Page-1" stroke="none" stroke-width="1" fill="none" fill-rule="evenodd">
        <g id="1_Factorie-Website_Main" transform="translate(-698.000000, -2834.000000)">
            <g id="features" transform="translate(0.000000, 2258.000000)">
                <g id="Maintenance" transform="translate(636.000000, 563.000000)">
                    <g id="Icon/Track-Maintenance" transform="translate(39.000000, 0.000000)">
                        <rect id="Rectangle" fill-opacity="0" fill="#D5D3D3" x="0" y="0" width="90" height="90"></rect>
                        <path d="M41.5593958,41.0773166 L42.1559791,75.4547828 C42.2734616,78.0378917 40.2060402,80.2131154 37.538264,80.3132811 C37.4719293,80.3157717 37.4055414,80.3167962 37.3391427,80.3167962 C34.6172493,80.3103562 32.4045124,78.1691075 32.3968371,75.5341693 C32.3968371,75.4990408 32.3970533,75.4639144 32.3977527,75.4287964 L34.0343678,41.059551 L41.5593958,41.0773166 Z" id="Path" stroke="#FFFFFF" stroke-width="3" stroke-linecap="round" stroke-linejoin="round" transform="translate(37.278793, 60.688174) rotate(30.000000) translate(-37.278793, -60.688174) "></path>
                        <path d="M44.787332,19.1670799 C46.2656157,17.7404802 48.026513,16.6235955 49.9745943,15.9152423 L50.0183255,33.0505768 L59.9594256,33.0775039 L59.9156944,15.9421694 C65.712751,18.0775118 69.8768006,23.8081174 69.8940113,30.5310126 C69.9157213,39.0585711 63.2571907,45.9534396 55.0217137,45.9311864 C46.7862367,45.9088253 40.092421,38.9777898 40.0706046,30.4502313 C40.0658603,28.5704294 40.3856792,26.7699649 40.9754484,25.1054443" id="Path" stroke="#FFFFFF" stroke-width="3" stroke-linecap="round" stroke-linejoin="round" transform="translate(54.982308, 30.923214) rotate(30.000000) translate(-54.982308, -30.923214) "></path>
                    </g>
                </g>
            </g>
        </g>
    </g>
</svg>