<?xml version="1.0" encoding="UTF-8"?>
<svg width="199px" height="51px" viewBox="0 0 199 51" version="1.1" xmlns="http://www.w3.org/2000/svg" xmlns:xlink="http://www.w3.org/1999/xlink">
    <!-- Generator: Sketch 55.2 (78181) - https://sketchapp.com -->
    <title>Factorie_Logo 1</title>
    <desc>Created with Sketch.</desc>
    <defs>
        <path d="M24.9963356,4.8494303 L0,4.8494303 L0,0.0413494949 L24.9963356,0.0413494949 L24.9963356,4.8494303 Z M14.7252055,7.59690505 L14.7252055,33.697922 L9.93150685,33.697922 L9.93150685,7.59690505 L14.7252055,7.59690505 Z" id="path-1"></path>
        <path d="M4.74919589,14.4655919 L18.9967802,14.4655919 L18.9967802,19.2736796 L4.74919589,19.2736796 L4.74919589,33.697922 L0,33.697922 L0,7.59690505 L4.74919589,7.59690505 L4.74919589,14.4655919 Z M0,0.0413494949 L18.9967802,0.0413494949 L18.9967802,4.8494303 L0,4.8494303 L0,0.0413494949 Z" id="path-3"></path>
        <path d="M0,10.7755102 L5,7.40816327 L5,33 L0,33 L0,10.7755102 Z M0,0 L5,0 L5,4.71428571 L0,8.08163265 L0,0 Z" id="path-5"></path>
        <path d="M0.005840625,28.8898412 L0.005840625,19.2736796 L0.0035109375,19.2736796 L0.0035109375,14.4655919 L0.005840625,14.4655919 L0.005840625,7.59690505 L4.59880313,7.59690505 L4.59880313,14.4655919 L20.671875,14.4655919 L20.671875,19.2736796 L4.59880313,19.2736796 L4.59880313,28.8898412 L20.671875,28.8898412 L20.671875,33.697922 L0.0035109375,33.697922 L0.0035109375,28.8898412 L0.005840625,28.8898412 Z M0.0035109375,0.0413494949 L20.671875,0.0413494949 L20.671875,4.8494303 L0.0035109375,4.8494303 L0.0035109375,0.0413494949 Z" id="path-7"></path>
        <path d="M20.9264667,33.697922 L13.1498,13.0913394 C13.1164333,13.0029737 13.0198667,12.9591515 12.9340667,12.9935293 C12.8905,13.0109758 12.8560667,13.0464869 12.8391333,13.0913394 L5.06247667,33.697922 L0.163306667,33.697922 L12.8391333,0.109521212 C12.8725,0.0211555556 12.9690667,-0.0226666667 13.0548667,0.0117111111 C13.0984333,0.0291575758 13.1328667,0.0646686869 13.1498,0.109521212 L25.8256333,33.697922 L20.9264667,33.697922 Z" id="path-9"></path>
        <path d="M16.3333333,33.697922 L16.3305667,33.697922 C7.31143333,33.697922 0,26.1636422 0,16.8696323 C0,7.57564646 7.31143333,0.0413494949 16.3305667,0.0413494949 L16.3333333,0.0413494949 L18,0.0413494949 L18,4.8494303 L16.3969667,4.8494303 L16.3969667,4.84963636 C16.3748333,4.84949899 16.3527,4.8494303 16.3305667,4.8494303 C9.88833333,4.8494303 4.66586667,10.2310808 4.66586667,16.8696323 C4.66586667,23.5082113 9.88833333,28.8898412 16.3305667,28.8898412 C16.3527,28.8898412 16.3748333,28.889776 16.3969667,28.8896489 L18,28.8898412 L18,33.697922 L16.3333333,33.697922 Z" id="path-11"></path>
        <path d="M16.9118061,33.697922 C7.61936566,33.697922 0.0863737374,26.1636422 0.0863737374,16.8696323 C0.0863737374,7.57564646 7.61936566,0.0413494949 16.9118061,0.0413494949 C26.2042121,0.0413494949 33.7372384,7.57564646 33.7372384,16.8696323 C33.7372384,26.1636422 26.2042121,33.697922 16.9118061,33.697922 Z M16.9118061,28.8898412 C23.5492586,28.8898412 28.9299475,23.5082113 28.9299475,16.8696323 C28.9299475,10.2310808 23.5492586,4.8494303 16.9118061,4.8494303 C10.2743535,4.8494303 4.8936303,10.2310808 4.8936303,16.8696323 C4.8936303,23.5082113 10.2743535,28.8898412 16.9118061,28.8898412 Z" id="path-13"></path>
        <path d="M10.2204455,24.3649048 L18.3432909,33.691383 L12.0025764,33.691383 L0.39862,20.2352958 L5.88257273,20.2352958 C10.1555345,20.2352958 13.6194418,16.7910545 13.6194418,12.5423596 C13.6194418,8.29366465 10.1555345,4.8494303 5.88257273,4.8494303 L0.321687273,4.8494303 L0.321687273,0.0413494949 L6.84967273,0.0618181818 C13.4556964,0.435440404 18.69676,5.88031717 18.69676,12.5423596 C18.69676,18.0205083 15.1529491,22.6756509 10.2204455,24.3649048 Z" id="path-15"></path>
        <path d="M0.0404102564,0.304347826 L0.878923077,0.304347826 L0.878923077,6.69565217 L0.0404102564,6.69565217 L0.0404102564,0.304347826 Z M7.98776068,2.51391304 L7.44222222,1.59173913 L7.40181197,1.59173913 L7.50283761,2.51391304 L7.50283761,6.69565217 L6.71483761,6.69565217 L6.71483761,0.203913043 L7.15935043,0.203913043 L10.5437094,4.46782609 L11.0690427,5.34434783 L11.1195556,5.34434783 L11.0084274,4.46782609 L11.0084274,0.304347826 L11.7964274,0.304347826 L11.7964274,6.79608696 L11.3519145,6.79608696 L7.98776068,2.51391304 Z M22.0067521,0.98 L19.8043932,0.98 L19.8043932,6.69565217 L18.9658803,6.69565217 L18.9658803,0.98 L16.7635214,0.98 L16.7635214,0.304347826 L22.0067521,0.304347826 L22.0067521,0.98 Z M26.9738462,0.304347826 L30.8229231,0.304347826 L30.8229231,0.98 L27.812359,0.98 L27.812359,3.07086957 L30.570359,3.07086957 L30.570359,3.74652174 L27.812359,3.74652174 L27.812359,6.02 L30.8734359,6.02 L30.8734359,6.69565217 L26.9738462,6.69565217 L26.9738462,0.304347826 Z M40.497812,6.69565217 L36.3153504,6.69565217 L36.3153504,0.304347826 L37.1538632,0.304347826 L37.1538632,6.02 L40.497812,6.02 L40.497812,6.69565217 Z M49.6473675,6.69565217 L45.464906,6.69565217 L45.464906,0.304347826 L46.3034188,0.304347826 L46.3034188,6.02 L49.6473675,6.02 L49.6473675,6.69565217 Z M54.8064103,0.304347826 L55.6449231,0.304347826 L55.6449231,6.69565217 L54.8064103,6.69565217 L54.8064103,0.304347826 Z M63.8650427,3.50913043 L66.2391453,3.50913043 L66.2391453,6.32130435 C66.1313846,6.39434813 66.001735,6.46130404 65.8501966,6.52217391 C65.6986581,6.58304378 65.5370171,6.6347823 65.3652735,6.6773913 C65.1935299,6.72000021 65.0150513,6.75195643 64.8298376,6.77326087 C64.6446239,6.79456534 64.4644615,6.80521739 64.2893504,6.80521739 C63.8381026,6.80521739 63.4238974,6.73978328 63.046735,6.60891304 C62.6695726,6.47804287 62.3429231,6.27717513 62.0667863,6.00630435 C61.7906496,5.73543357 61.5751282,5.39152387 61.4202222,4.97456522 C61.2653162,4.55760657 61.1878632,4.0660897 61.1878632,3.5 C61.1878632,2.90956217 61.2821538,2.40435087 61.470735,1.98434783 C61.6593162,1.56434478 61.9051453,1.22195652 62.2082222,0.957173913 C62.5112991,0.692391304 62.8514188,0.499130435 63.2285812,0.377391304 C63.6057436,0.255652174 63.982906,0.194782609 64.3600684,0.194782609 C64.7641709,0.194782609 65.0975556,0.214565217 65.3602222,0.254130435 C65.6228889,0.293695652 65.8451453,0.346956522 66.0269915,0.413913043 L65.8148376,1.08043478 C65.4915556,0.940434783 65.0302051,0.870434783 64.4307863,0.870434783 C64.1479145,0.870434783 63.8667265,0.914565217 63.5872222,1.00282609 C63.3077179,1.09108696 63.0568376,1.23869565 62.8345812,1.44565217 C62.6123248,1.6526087 62.4304786,1.92347522 62.2890427,2.25826087 C62.1476068,2.59304652 62.0768889,3.00695348 62.0768889,3.5 C62.0768889,3.95043783 62.1341368,4.33999848 62.2486325,4.66869565 C62.3631282,4.99739283 62.5230855,5.26978139 62.7285043,5.48586957 C62.9339231,5.70195774 63.1814359,5.86326026 63.4710427,5.96978261 C63.7606496,6.07630496 64.0771966,6.12956522 64.4206838,6.12956522 C64.8517265,6.12956522 65.2187863,6.05347917 65.5218632,5.90130435 L65.5218632,4.12086957 L63.8650427,3.93826087 L63.8650427,3.50913043 Z M71.5901368,0.304347826 L75.4392137,0.304347826 L75.4392137,0.98 L72.4286496,0.98 L72.4286496,3.07086957 L75.1866496,3.07086957 L75.1866496,3.74652174 L72.4286496,3.74652174 L72.4286496,6.02 L75.4897265,6.02 L75.4897265,6.69565217 L71.5901368,6.69565217 L71.5901368,0.304347826 Z M82.2045641,2.51391304 L81.6590256,1.59173913 L81.6186154,1.59173913 L81.719641,2.51391304 L81.719641,6.69565217 L80.931641,6.69565217 L80.931641,0.203913043 L81.3761538,0.203913043 L84.7605128,4.46782609 L85.2858462,5.34434783 L85.336359,5.34434783 L85.2252308,4.46782609 L85.2252308,0.304347826 L86.0132308,0.304347826 L86.0132308,6.79608696 L85.5687179,6.79608696 L82.2045641,2.51391304 Z M96.2235556,0.98 L94.0211966,0.98 L94.0211966,6.69565217 L93.1826838,6.69565217 L93.1826838,0.98 L90.9803248,0.98 L90.9803248,0.304347826 L96.2235556,0.304347826 L96.2235556,0.98 Z M114.034376,0.304347826 L117.883453,0.304347826 L117.883453,0.98 L114.872889,0.98 L114.872889,3.07086957 L117.630889,3.07086957 L117.630889,3.74652174 L114.872889,3.74652174 L114.872889,6.02 L117.933966,6.02 L117.933966,6.69565217 L114.034376,6.69565217 L114.034376,0.304347826 Z M127.901829,6.43086957 C127.699778,6.57087017 127.443846,6.66826057 127.134034,6.72304348 C126.824222,6.77782636 126.494205,6.80521739 126.143983,6.80521739 C125.719675,6.80521739 125.322308,6.73978328 124.95188,6.60891304 C124.581453,6.47804287 124.258171,6.27869687 123.982034,6.01086957 C123.705897,5.74304226 123.487009,5.4006543 123.325368,4.98369565 C123.163726,4.566737 123.082906,4.07217665 123.082906,3.5 C123.082906,2.90347522 123.172145,2.39674217 123.350624,1.97978261 C123.529103,1.56282304 123.764829,1.22195652 124.057803,0.957173913 C124.350778,0.692391304 124.679111,0.499130435 125.042803,0.377391304 C125.406496,0.255652174 125.776923,0.194782609 126.154085,0.194782609 C126.558188,0.194782609 126.888205,0.214565217 127.144137,0.254130435 C127.400068,0.293695652 127.618957,0.346956522 127.800803,0.413913043 L127.598752,1.08043478 C127.27547,0.940434783 126.81412,0.870434783 126.214701,0.870434783 C125.938564,0.870434783 125.665795,0.916086957 125.396393,1.0073913 C125.126991,1.09869565 124.886214,1.24782609 124.67406,1.45478261 C124.461906,1.66173913 124.291846,1.93260565 124.16388,2.2673913 C124.035915,2.60217696 123.971932,3.01304043 123.971932,3.5 C123.971932,3.93826391 124.032547,4.32173761 124.153778,4.65043478 C124.275009,4.97913196 124.441701,5.25304226 124.653855,5.47217391 C124.866009,5.69130557 125.115205,5.85565157 125.401444,5.96521739 C125.687684,6.07478322 125.999179,6.12956522 126.335932,6.12956522 C126.639009,6.12956522 126.903359,6.10217422 127.128983,6.0473913 C127.354607,5.99260839 127.544872,5.922609 127.699778,5.8373913 L127.901829,6.43086957 Z M132.515333,3.5 C132.515333,2.43477652 132.76453,1.61761174 133.262923,1.04847826 C133.761316,0.479344783 134.471863,0.194782609 135.394564,0.194782609 C135.892957,0.194782609 136.324,0.273913043 136.687692,0.432173913 C137.051385,0.590434783 137.352778,0.814130435 137.591872,1.10326087 C137.830966,1.3923913 138.007761,1.73934478 138.122256,2.14413043 C138.236752,2.54891609 138.294,3.00086652 138.294,3.5 C138.294,4.56522287 138.04312,5.38238857 137.541359,5.95152174 C137.039598,6.52065491 136.324,6.80521739 135.394564,6.80521739 C134.902906,6.80521739 134.476915,6.72608775 134.11659,6.56782609 C133.756265,6.4095643 133.456556,6.18587109 133.217462,5.89673913 C132.978368,5.60760717 132.801573,5.2606543 132.687077,4.85586957 C132.572581,4.45108483 132.515333,3.99913043 132.515333,3.5 Z M133.404359,3.5 C133.404359,3.85304652 133.443085,4.18782457 133.520538,4.50434783 C133.597991,4.82087109 133.717538,5.09934661 133.879179,5.33978261 C134.040821,5.58021861 134.247923,5.77195591 134.500487,5.915 C134.753051,6.05804409 135.051077,6.12956522 135.394564,6.12956522 C136.020923,6.12956522 136.512581,5.91500213 136.869538,5.48586957 C137.226496,5.056737 137.404974,4.39478717 137.404974,3.5 C137.404974,3.15304043 137.366248,2.81978565 137.288795,2.50021739 C137.211342,2.18064913 137.090111,1.90065217 136.925103,1.66021739 C136.760094,1.41978261 136.551308,1.22804348 136.298744,1.085 C136.046179,0.941956522 135.744786,0.870434783 135.394564,0.870434783 C134.77494,0.870434783 134.288333,1.08499696 133.934744,1.51413043 C133.581154,1.94326391 133.404359,2.60521435 133.404359,3.5 Z M146.837402,5.07043478 C146.837402,4.81478139 146.753214,4.60630526 146.584838,4.445 C146.416462,4.28369474 146.205991,4.14065278 145.953427,4.01586957 C145.700863,3.89108696 145.42641,3.77391304 145.130068,3.66434783 C144.833726,3.55478261 144.559274,3.4223913 144.306709,3.26717391 C144.054145,3.11195652 143.843675,2.92021739 143.675299,2.69195652 C143.506923,2.46369565 143.422735,2.17304652 143.422735,1.82 C143.422735,1.32086652 143.614684,0.925217391 143.998581,0.633043478 C144.382479,0.340869565 144.928017,0.194782609 145.635197,0.194782609 C146.046034,0.194782609 146.419829,0.222173913 146.756581,0.276956522 C147.093333,0.33173913 147.356,0.40173913 147.544581,0.486956522 L147.292017,1.15347826 C147.137111,1.08652174 146.909803,1.0226087 146.610094,0.96173913 C146.310385,0.900869565 145.971949,0.870434783 145.594786,0.870434783 C145.150274,0.870434783 144.816889,0.960217391 144.594632,1.13978261 C144.372376,1.31934783 144.261248,1.53086957 144.261248,1.77434783 C144.261248,2.01173913 144.345436,2.20956522 144.513812,2.36782609 C144.682188,2.52608696 144.892658,2.6676087 145.145222,2.7923913 C145.397786,2.91717391 145.672239,3.04043478 145.968581,3.16217391 C146.264923,3.28391304 146.539376,3.42543478 146.79194,3.58673913 C147.044504,3.74804348 147.254974,3.94130435 147.42335,4.16652174 C147.591726,4.39174035 147.675915,4.67173761 147.675915,5.00652174 C147.675915,5.2804363 147.622034,5.5269553 147.514274,5.74608696 C147.406513,5.96521861 147.248239,6.15391213 147.039453,6.31217391 C146.830667,6.4704357 146.578103,6.59217361 146.281761,6.6773913 C145.985419,6.76260912 145.648667,6.80521739 145.271504,6.80521739 C144.766376,6.80521739 144.348803,6.77021776 144.018786,6.70021739 C143.688769,6.63021709 143.432838,6.552609 143.250991,6.4673913 L143.533863,5.7826087 C143.688769,5.86173943 143.917761,5.93934752 144.220838,6.01543478 C144.523915,6.09152204 144.864034,6.12956522 145.241197,6.12956522 C145.463453,6.12956522 145.672239,6.10978291 145.867556,6.07021739 C146.062872,6.03065187 146.231248,5.96673943 146.372684,5.87847826 C146.51412,5.79021709 146.626932,5.67913104 146.71112,5.54521739 C146.795308,5.41130374 146.837402,5.25304439 146.837402,5.07043478 Z M154.491778,4.1573913 L152.158085,0.304347826 L153.138034,0.304347826 L154.794855,3.09826087 L154.966598,3.65521739 L154.976701,3.65521739 L155.158547,3.08 L156.74465,0.304347826 L157.643778,0.304347826 L155.330291,4.14826087 L155.330291,6.69565217 L154.491778,6.69565217 L154.491778,4.1573913 Z M165.692154,5.07043478 C165.692154,4.81478139 165.607966,4.60630526 165.43959,4.445 C165.271214,4.28369474 165.060744,4.14065278 164.808179,4.01586957 C164.555615,3.89108696 164.281162,3.77391304 163.984821,3.66434783 C163.688479,3.55478261 163.414026,3.4223913 163.161462,3.26717391 C162.908897,3.11195652 162.698427,2.92021739 162.530051,2.69195652 C162.361675,2.46369565 162.277487,2.17304652 162.277487,1.82 C162.277487,1.32086652 162.469436,0.925217391 162.853333,0.633043478 C163.237231,0.340869565 163.782769,0.194782609 164.489949,0.194782609 C164.900786,0.194782609 165.274581,0.222173913 165.611333,0.276956522 C165.948085,0.33173913 166.210752,0.40173913 166.399333,0.486956522 L166.146769,1.15347826 C165.991863,1.08652174 165.764556,1.0226087 165.464846,0.96173913 C165.165137,0.900869565 164.826701,0.870434783 164.449538,0.870434783 C164.005026,0.870434783 163.671641,0.960217391 163.449385,1.13978261 C163.227128,1.31934783 163.116,1.53086957 163.116,1.77434783 C163.116,2.01173913 163.200188,2.20956522 163.368564,2.36782609 C163.53694,2.52608696 163.74741,2.6676087 163.999974,2.7923913 C164.252538,2.91717391 164.526991,3.04043478 164.823333,3.16217391 C165.119675,3.28391304 165.394128,3.42543478 165.646692,3.58673913 C165.899256,3.74804348 166.109726,3.94130435 166.278103,4.16652174 C166.446479,4.39174035 166.530667,4.67173761 166.530667,5.00652174 C166.530667,5.2804363 166.476786,5.5269553 166.369026,5.74608696 C166.261265,5.96521861 166.102991,6.15391213 165.894205,6.31217391 C165.685419,6.4704357 165.432855,6.59217361 165.136513,6.6773913 C164.840171,6.76260912 164.503419,6.80521739 164.126256,6.80521739 C163.621128,6.80521739 163.203556,6.77021776 162.873538,6.70021739 C162.543521,6.63021709 162.28759,6.552609 162.105744,6.4673913 L162.388615,5.7826087 C162.543521,5.86173943 162.772513,5.93934752 163.07559,6.01543478 C163.378667,6.09152204 163.718786,6.12956522 164.095949,6.12956522 C164.318205,6.12956522 164.526991,6.10978291 164.722308,6.07021739 C164.917624,6.03065187 165.086,5.96673943 165.227436,5.87847826 C165.368872,5.79021709 165.481684,5.67913104 165.565872,5.54521739 C165.65006,5.41130374 165.692154,5.25304439 165.692154,5.07043478 Z M176.357094,0.98 L174.154735,0.98 L174.154735,6.69565217 L173.316222,6.69565217 L173.316222,0.98 L171.113863,0.98 L171.113863,0.304347826 L176.357094,0.304347826 L176.357094,0.98 Z M181.324188,0.304347826 L185.173265,0.304347826 L185.173265,0.98 L182.162701,0.98 L182.162701,3.07086957 L184.920701,3.07086957 L184.920701,3.74652174 L182.162701,3.74652174 L182.162701,6.02 L185.223778,6.02 L185.223778,6.69565217 L181.324188,6.69565217 L181.324188,0.304347826 Z M196.100872,2.40434783 L196.201897,1.44565217 L196.151385,1.44565217 L195.767487,2.32217391 L193.928821,5.2073913 L193.676256,5.2073913 L191.726462,2.31304348 L191.362769,1.44565217 L191.312256,1.44565217 L191.453692,2.39521739 L191.453692,6.69565217 L190.665692,6.69565217 L190.665692,0.304347826 L191.292051,0.304347826 L193.504513,3.57304348 L193.837897,4.28521739 L193.858103,4.28521739 L194.171282,3.55478261 L196.282718,0.304347826 L196.939385,0.304347826 L196.939385,6.69565217 L196.100872,6.69565217 L196.100872,2.40434783 Z" id="path-17"></path>
    </defs>
    <g id="Page-1" stroke="none" stroke-width="1" fill="none" fill-rule="evenodd">
        <g id="1_Factorie-Website_Main" transform="translate(-40.000000, -40.000000)">
            <g id="Header/Default" transform="translate(40.000000, 40.000000)">
                <g id="Factorie_Logo-1">
                    <g id="Group-3" transform="translate(75.000000, 0.000000)">
                        <mask id="mask-2" fill="white">
                            <use xlink:href="#path-1"></use>
                        </mask>
                        <g id="Clip-2"></g>
                        <polygon id="Fill-1" fill="#FFFFFF" mask="url(#mask-2)" points="-1.71232877 -1.67582222 26.7086644 -1.67582222 26.7086644 35.4150937 -1.71232877 35.4150937"></polygon>
                    </g>
                    <g id="Group-6">
                        <mask id="mask-4" fill="white">
                            <use xlink:href="#path-3"></use>
                        </mask>
                        <g id="Clip-5"></g>
                        <polygon id="Fill-4" fill="#FFFFFF" mask="url(#mask-4)" points="-1.69642857 -1.67582222 20.6932088 -1.67582222 20.6932088 35.4150937 -1.69642857 35.4150937"></polygon>
                    </g>
                    <g id="Group-9" transform="translate(165.000000, 0.000000)">
                        <mask id="mask-6" fill="white">
                            <use xlink:href="#path-5"></use>
                        </mask>
                        <g id="Clip-8"></g>
                        <polygon id="Fill-7" fill="#E95652" mask="url(#mask-6)" points="-1.78571429 -1.68367347 6.78571429 -1.68367347 6.78571429 34.6836735 -1.78571429 34.6836735"></polygon>
                    </g>
                    <g id="Group-12" transform="translate(178.000000, 0.000000)">
                        <mask id="mask-8" fill="white">
                            <use xlink:href="#path-7"></use>
                        </mask>
                        <g id="Clip-11"></g>
                        <polygon id="Fill-10" fill="#E95652" mask="url(#mask-8)" points="-1.63711406 -1.67582222 22.3125 -1.67582222 22.3125 35.4150937 -1.63711406 35.4150937"></polygon>
                    </g>
                    <g id="Group-15" transform="translate(22.000000, 0.000000)">
                        <mask id="mask-10" fill="white">
                            <use xlink:href="#path-9"></use>
                        </mask>
                        <g id="Clip-14"></g>
                        <polygon id="Fill-13" fill="#FFFFFF" mask="url(#mask-10)" points="-1.50336 -1.71717172 27.4923 -1.71717172 27.4923 35.4150937 -1.50336 35.4150937"></polygon>
                    </g>
                    <g id="Group-18" transform="translate(52.000000, 0.000000)">
                        <mask id="mask-12" fill="white">
                            <use xlink:href="#path-11"></use>
                        </mask>
                        <g id="Clip-17"></g>
                        <polygon id="Fill-16" fill="#FFFFFF" mask="url(#mask-12)" points="-1.66666667 -1.67582222 19.6666667 -1.67582222 19.6666667 35.4150937 -1.66666667 35.4150937"></polygon>
                    </g>
                    <g id="Group-21" transform="translate(102.000000, 0.000000)">
                        <mask id="mask-14" fill="white">
                            <use xlink:href="#path-13"></use>
                        </mask>
                        <g id="Clip-20"></g>
                        <polygon id="Fill-19" fill="#FFFFFF" mask="url(#mask-14)" points="-1.63079798 -1.67582222 35.4544101 -1.67582222 35.4544101 35.4150937 -1.63079798 35.4150937"></polygon>
                    </g>
                    <g id="Group-24" transform="translate(139.000000, 0.000000)">
                        <mask id="mask-16" fill="white">
                            <use xlink:href="#path-15"></use>
                        </mask>
                        <g id="Clip-23"></g>
                        <polygon id="Fill-22" fill="#FFFFFF" mask="url(#mask-16)" points="-1.40558545 -1.67582222 20.4240327 -1.67582222 20.4240327 35.4085547 -1.40558545 35.4085547"></polygon>
                    </g>
                    <g id="Group-27" transform="translate(1.000000, 44.000000)">
                        <mask id="mask-18" fill="white">
                            <use xlink:href="#path-17"></use>
                        </mask>
                        <g id="Clip-26"></g>
                        <polygon id="Fill-25" fill="#FFFFFF" mask="url(#mask-18)" points="-1.64335043 -1.32695652 198.623145 -1.32695652 198.623145 8.32695652 -1.64335043 8.32695652"></polygon>
                    </g>
                </g>
            </g>
        </g>
    </g>
</svg>