<?xml version="1.0" encoding="UTF-8"?>
<svg width="49px" height="63px" viewBox="0 0 49 63" version="1.1" xmlns="http://www.w3.org/2000/svg" xmlns:xlink="http://www.w3.org/1999/xlink">
    <!-- Generator: Sketch 55.2 (78181) - https://sketchapp.com -->
    <title>Projects icon</title>
    <desc>Created with Sketch.</desc>
    <g id="Page-1" stroke="none" stroke-width="1" fill="none" fill-rule="evenodd" stroke-linejoin="round">
        <g id="1_Factorie-Website_Main" transform="translate(-696.000000, -2536.000000)" stroke="#FFFFFF" stroke-width="3">
            <g id="features" transform="translate(0.000000, 2258.000000)">
                <g id="Projects" transform="translate(664.000000, 280.000000)">
                    <g id="Projects-icon" transform="translate(34.000000, 0.000000)">
                        <path d="M0,4.80998415 C0,4.09641345 0,3.02605739 0,1.59891599 C0,0.715859072 0.703552536,0 1.57142857,0 L37.1692289,0 L37.1692289,8.05482468 L45,8.05482468 L45,57.401084 C45,58.2841409 44.2964475,59 43.4285714,59 L1.57142857,59 C0.703552536,59 0,58.2841409 0,57.401084 C0,28.8490187 0,18.3738894 0,9.66675292 M37.1692289,4.54747351e-13 L45,8.05482468 L37.1692289,4.54747351e-13 Z" id="Shape" stroke-linecap="round"></path>
                        <path d="M20.6666667,19.9071167 L20.6666667,17 L25.3333333,17 L25.3333333,19.9071167 C26.7320669,20.199851 28.0360317,20.750464 29.19322,21.5069483 L31.2495791,19.4505892 L34.5494108,22.7504209 L32.4930517,24.80678 C33.249536,25.9639683 33.800149,27.2679331 34.0928833,28.6666667 L37,28.6666667 L37,33.3333333 L34.0928833,33.3333333 C33.800149,34.7320669 33.249536,36.0360317 32.4930517,37.19322 L34.5494108,39.2495791 L31.2495791,42.5494108 L29.19322,40.4930517 C28.0360317,41.249536 26.7320669,41.800149 25.3333333,42.0928833 L25.3333333,45 L20.6666667,45 L20.6666667,42.0928833 C19.2679331,41.800149 17.9639683,41.249536 16.80678,40.4930517 L14.7504209,42.5494108 L11.4505892,39.2495791 L13.5069483,37.19322 C12.750464,36.0360317 12.199851,34.7320669 11.9071167,33.3333333 L9,33.3333333 L9,28.6666667 L11.9071167,28.6666667 C12.199851,27.2679331 12.750464,25.9639683 13.5069483,24.80678 L11.4505892,22.7504209 L14.7504209,19.4505892 L16.80678,21.5069483 C17.9639683,20.750464 19.2679331,20.199851 20.6666667,19.9071167 Z" id="Path" stroke-linecap="square"></path>
                    </g>
                </g>
            </g>
        </g>
    </g>
</svg>