<?xml version="1.0" encoding="UTF-8"?>
<svg width="27px" height="27px" viewBox="0 0 27 27" version="1.1" xmlns="http://www.w3.org/2000/svg" xmlns:xlink="http://www.w3.org/1999/xlink">
    <!-- Generator: Sketch 55.2 (78181) - https://sketchapp.com -->
    <title>twitter</title>
    <desc>Created with Sketch.</desc>
    <g id="Page-1" stroke="none" stroke-width="1" fill="none" fill-rule="evenodd">
        <g id="4_Factorie-Website_Mobile" transform="translate(-143.000000, -5290.000000)">
            <g id="twitter" transform="translate(144.000000, 5291.000000)">
                <circle id="Oval" stroke="#50ABF1" fill="#55ACEE" cx="12.5" cy="12.5" r="12.5"></circle>
                <path d="M20.1612903,8.69013674 C19.6273576,8.93291489 19.0530024,9.09712037 18.4506623,9.17045486 C19.0656622,8.79262282 19.5376285,8.19478733 19.7603966,7.48125643 C19.1849308,7.83130335 18.5472766,8.08524109 17.8691998,8.22211695 C17.3259388,7.6288364 16.5519141,7.25806452 15.6948233,7.25806452 C14.0503816,7.25806452 12.7166603,8.62568438 12.7166603,10.3119221 C12.7166603,10.551284 12.7430904,10.7842691 12.7941738,11.0079165 C10.3190714,10.880606 8.12448361,9.66489328 6.65550235,7.81672755 C6.39919688,8.26766632 6.25216549,8.79262282 6.25216549,9.35219685 C6.25216549,10.4114475 6.77832464,11.3465761 7.57700269,11.8940795 C7.08904505,11.878365 6.62951644,11.7410336 6.2281785,11.5116925 C6.2279564,11.5246741 6.2279564,11.5376557 6.2279564,11.5504095 C6.2279564,13.0300808 7.25495509,14.264241 8.61710539,14.5445974 C8.36746298,14.6147434 8.10382815,14.6518662 7.83264186,14.6518662 C7.6403017,14.6518662 7.4539583,14.6329632 7.27227903,14.5974347 C7.65118469,15.8104144 8.75081067,16.693389 10.0543261,16.7182134 C9.03487887,17.5374188 7.7509084,18.0254803 6.35522072,18.0254803 C6.11535079,18.0254803 5.87770187,18.0111323 5.64516129,17.9826639 C6.96244703,18.8494684 8.52826467,19.3548387 10.2100195,19.3548387 C15.6879381,19.3548387 18.6836471,14.701515 18.6836471,10.665613 C18.6836471,10.533292 18.6807598,10.4014266 18.6749851,10.2706999 C19.257336,9.84025836 19.7621734,9.30254803 20.1612903,8.69013674 L20.1612903,8.69013674 Z" id="Path" fill="#FFFFFF"></path>
            </g>
        </g>
    </g>
</svg>