<?xml version="1.0" encoding="UTF-8"?>
<svg width="18px" height="180px" viewBox="0 0 18 180" version="1.1" xmlns="http://www.w3.org/2000/svg" xmlns:xlink="http://www.w3.org/1999/xlink">
    <!-- Generator: Sketch 55.2 (78181) - https://sketchapp.com -->
    <title>Icon/Yellow Boxes-vertical</title>
    <desc>Created with Sketch.</desc>
    <g id="Page-1" stroke="none" stroke-width="1" fill="none" fill-rule="evenodd" stroke-linecap="round" stroke-linejoin="round">
        <g id="4_Factorie-Website_Mobile" transform="translate(-174.000000, -1532.000000)">
            <g id="Icon/Yellow-Boxes-vertical" transform="translate(175.000000, 1534.000000)">
                <path d="M-80,88 L96,88" id="Path-2" stroke="#D5D5D5" stroke-width="4" transform="translate(8.000000, 88.000000) rotate(90.000000) translate(-8.000000, -88.000000) "></path>
                <g id="Inventory" transform="translate(0.000000, 20.000000)" stroke="#293557" stroke-width="1.28">
                    <path d="M0,1.92759306 L0,0.633333333 C0,0.283552992 0.28653776,0 0.64,0 L15.36,0 C15.7134622,0 16,0.283552992 16,0.633333333 L16,18.3666667 C16,18.716447 15.7134622,19 15.36,19 L0.64,19 C0.28653776,19 0,18.716447 0,18.3666667 L0,4.15762128" id="Shape" fill="#FACD48"></path>
                    <path d="M4,4.75 L12,4.75" id="Path-39"></path>
                    <path d="M4,9.5 L12,9.5" id="Path-39"></path>
                    <path d="M4,14.25 L12,14.25" id="Path-39"></path>
                </g>
                <g id="Inventory-Copy" transform="translate(0.000000, 59.000000)" stroke="#293557" stroke-width="1.28">
                    <path d="M0,1.92759306 L0,0.633333333 C0,0.283552992 0.28653776,0 0.64,0 L15.36,0 C15.7134622,0 16,0.283552992 16,0.633333333 L16,18.3666667 C16,18.716447 15.7134622,19 15.36,19 L0.64,19 C0.28653776,19 0,18.716447 0,18.3666667 L0,4.15762128" id="Shape" fill="#FACD48"></path>
                    <path d="M4,4.75 L12,4.75" id="Path-39"></path>
                    <path d="M4,9.5 L12,9.5" id="Path-39"></path>
                    <path d="M4,14.25 L12,14.25" id="Path-39"></path>
                </g>
                <g id="Inventory-Copy-2" transform="translate(0.000000, 98.000000)" stroke="#293557" stroke-width="1.28">
                    <path d="M0,1.92759306 L0,0.633333333 C0,0.283552992 0.28653776,0 0.64,0 L15.36,0 C15.7134622,0 16,0.283552992 16,0.633333333 L16,18.3666667 C16,18.716447 15.7134622,19 15.36,19 L0.64,19 C0.28653776,19 0,18.716447 0,18.3666667 L0,4.15762128" id="Shape" fill="#FACD48"></path>
                    <path d="M4,4.75 L12,4.75" id="Path-39"></path>
                    <path d="M4,9.5 L12,9.5" id="Path-39"></path>
                    <path d="M4,14.25 L12,14.25" id="Path-39"></path>
                </g>
                <g id="Inventory-Copy-3" transform="translate(0.000000, 137.000000)" stroke="#293557" stroke-width="1.28">
                    <path d="M0,1.92759306 L0,0.633333333 C0,0.283552992 0.28653776,0 0.64,0 L15.36,0 C15.7134622,0 16,0.283552992 16,0.633333333 L16,18.3666667 C16,18.716447 15.7134622,19 15.36,19 L0.64,19 C0.28653776,19 0,18.716447 0,18.3666667 L0,4.15762128" id="Shape" fill="#FACD48"></path>
                    <path d="M4,4.75 L12,4.75" id="Path-39"></path>
                    <path d="M4,9.5 L12,9.5" id="Path-39"></path>
                    <path d="M4,14.25 L12,14.25" id="Path-39"></path>
                </g>
            </g>
        </g>
    </g>
</svg>